<?xml version="1.0" encoding="UTF-8"?>
<svg version="1.1" viewBox="0 0 24 24" xmlns="http://www.w3.org/2000/svg"><g transform="translate(2,4)" style="fill-rule:evenodd;fill:none"><g id="Core" transform="translate(-86,-256)" style="fill:#000"><g id="folder-mydrive" transform="translate(86,256)"><path id="Shape" d="m18 2h-8l-2-2h-6c-1.1 0-2 0.9-2 2v12c0 1.1 0.9 2 2 2h16c1.1 0 2-0.9 2-2v-10c0-1.1-0.9-2-2-2zm-8.3 11-1.3-2.1 2.8-5 1.5 2.7-2.4 4.4zm6.6 0h-5.5l1.4-2.5h5.1l0.3 0.5zm-4.5-8h2.4l2.8 5h-3l-2.6-4.5z"/></g></g></g></svg>
